<?xml version="1.0" encoding="UTF-8"?>
<svg xmlns="http://www.w3.org/2000/svg" xmlns:xlink="http://www.w3.org/1999/xlink" width="744px" height="1052px" viewBox="0 0 372 526" version="1.1">
<g id="surface1">
<path style=" stroke:none;fill-rule:nonzero;fill:rgb(1.568628%,1.568628%,1.568628%);fill-opacity:1;" d="M 181.679688 432.167969 C 175.316406 431.703125 165.269531 430.355469 161.59375 429.476562 C 151.425781 427.050781 139.695312 423.433594 134.816406 421.21875 C 133.019531 420.40625 129.957031 419.035156 128.007812 418.171875 C 126.058594 417.3125 122.945312 415.722656 121.085938 414.644531 C 119.230469 413.5625 116.570312 412.101562 115.179688 411.398438 C 113.789062 410.691406 112.496094 409.941406 112.308594 409.726562 C 111.796875 409.136719 107.742188 406.363281 106.402344 405.6875 C 104.890625 404.921875 101.265625 402.253906 97.804688 399.363281 C 96.3125 398.117188 93.742188 395.992188 92.09375 394.636719 C 88.695312 391.855469 80.144531 383.472656 76.355469 379.210938 C 73.976562 376.535156 72.363281 374.390625 68.210938 368.378906 C 67.25 366.988281 66.023438 365.316406 65.484375 364.667969 C 64.949219 364.019531 64.25 363.171875 63.9375 362.785156 C 62.789062 361.386719 59.519531 356.28125 58.628906 354.507812 C 58.128906 353.503906 57.519531 352.457031 57.277344 352.179688 C 56.371094 351.128906 49.507812 337.011719 48.09375 333.28125 C 44.53125 323.90625 40.261719 309.101562 39.085938 302.050781 C 36.25 285.0625 36.3125 263.746094 39.25 246.859375 C 40.519531 239.542969 44.472656 225.890625 48 216.648438 C 49.417969 212.929688 55.640625 200.199219 57.898438 196.394531 C 59.855469 193.097656 63.3125 187.632812 63.554688 187.449219 C 64.140625 187.015625 67.851562 181.914062 71.804688 176.125 C 73.894531 173.0625 79.738281 166.59375 85.058594 161.457031 C 88.683594 157.960938 90.507812 156.375 97.964844 150.234375 C 101.390625 147.410156 105.09375 144.71875 106.570312 143.972656 C 107.316406 143.597656 108.910156 142.523438 110.117188 141.585938 C 111.324219 140.648438 113.601562 139.203125 115.179688 138.378906 C 116.757812 137.554688 119.722656 135.917969 121.769531 134.738281 C 123.816406 133.558594 126.855469 132.007812 128.523438 131.285156 C 130.1875 130.5625 133.222656 129.238281 135.265625 128.34375 C 140.125 126.214844 145.457031 124.476562 154.269531 122.148438 C 162.433594 119.992188 166.246094 119.257812 174.421875 118.28125 C 187.945312 116.660156 195.980469 116.660156 209.527344 118.28125 C 217.703125 119.257812 221.519531 119.992188 229.679688 122.152344 C 243.214844 125.734375 251.390625 128.933594 263.875 135.542969 C 271.402344 139.527344 271.496094 139.582031 274.007812 141.5 C 275.074219 142.3125 276.839844 143.484375 277.933594 144.101562 C 280.585938 145.601562 282.375 146.972656 291.671875 154.636719 C 298.679688 160.414062 308.007812 170.101562 311.761719 175.507812 C 312.648438 176.785156 314.164062 178.847656 315.125 180.09375 C 316.085938 181.34375 317.554688 183.304688 318.390625 184.457031 C 319.226562 185.613281 320.136719 186.796875 320.414062 187.089844 C 321.070312 187.785156 324.902344 193.785156 326.746094 197.003906 C 329.328125 201.511719 334.835938 212.855469 336.285156 216.648438 C 339.804688 225.863281 343.765625 239.535156 345.039062 246.859375 C 347.972656 263.746094 348.035156 285.0625 345.199219 302.050781 C 344.019531 309.105469 339.753906 323.902344 336.1875 333.300781 C 334.757812 337.058594 327.917969 351.136719 327.011719 352.179688 C 326.769531 352.457031 326.230469 353.367188 325.8125 354.203125 C 324.96875 355.886719 321.3125 361.636719 320.367188 362.765625 C 318.507812 364.976562 317.304688 366.535156 316.976562 367.164062 C 316.769531 367.554688 315.519531 369.242188 314.199219 370.914062 C 312.875 372.582031 311.386719 374.574219 310.894531 375.339844 C 309.441406 377.597656 303.242188 384.46875 299.054688 388.464844 C 295.511719 391.84375 293.875 393.265625 286.492188 399.375 C 283.113281 402.171875 279.257812 405 277.882812 405.691406 C 276.550781 406.359375 272.492188 409.132812 271.976562 409.726562 C 271.789062 409.941406 270.574219 410.65625 269.273438 411.320312 C 267.976562 411.984375 264.863281 413.644531 262.355469 415.011719 C 259.847656 416.378906 256.886719 417.90625 255.773438 418.410156 C 245.652344 422.988281 239.675781 425.011719 224.949219 428.84375 C 219.855469 430.167969 209.996094 431.597656 201.933594 432.183594 C 197.160156 432.53125 186.492188 432.523438 181.679688 432.167969 Z M 181.679688 432.167969 "/>
<path style=" stroke:none;fill-rule:nonzero;fill:rgb(100%,100%,100%);fill-opacity:1;" d="M 279.109375 157.324219 C 277.105469 156.628906 273.410156 155.824219 270.894531 155.53125 C 266.792969 155.054688 265.960938 154.667969 262.707031 151.699219 C 258.191406 147.585938 243.90625 137.828125 236.375 133.71875 C 224.304688 127.132812 236.871094 131.113281 253.46875 139.136719 C 265.632812 145.015625 277.808594 152.5625 284.148438 158.15625 C 285.179688 159.066406 283.207031 158.742188 279.109375 157.324219 Z M 233.46875 185.375 C 226.9375 178.375 215.9375 169.121094 207.234375 163.304688 C 198.714844 157.609375 178.777344 148.269531 168.585938 145.199219 C 156.253906 141.480469 144.0625 139.082031 134.898438 138.566406 L 131.328125 138.363281 L 136.328125 136.003906 C 148.40625 130.308594 171.183594 125.070312 188.113281 124.097656 L 196.328125 123.625 L 205.613281 127.511719 C 210.71875 129.652344 218.121094 133.019531 222.058594 135 C 229.390625 138.691406 247.597656 150.417969 254.441406 155.863281 C 258.011719 158.703125 258.246094 159.078125 257.875 161.363281 C 256.914062 167.292969 242.628906 192.464844 240.324219 192.292969 C 240.089844 192.273438 237.003906 189.160156 233.46875 185.375 Z M 193.515625 223.617188 C 178.988281 210.210938 156.847656 197.019531 133.824219 188.050781 C 117.652344 181.75 99.90625 178.339844 86.492188 178.953125 L 78.085938 179.335938 L 81.773438 175.074219 C 87.40625 168.574219 97.914062 159.195312 107.101562 152.46875 L 115.382812 146.410156 L 123.710938 146.894531 C 150.960938 148.480469 167.585938 152.628906 187.527344 162.804688 C 205.796875 172.132812 217.78125 180.925781 228.179688 192.644531 C 234.40625 199.65625 234.410156 199.667969 231.238281 203.621094 C 224.9375 211.464844 210.769531 225.066406 202.753906 230.960938 C 202.359375 231.25 198.214844 227.957031 193.515625 223.617188 Z M 139.144531 264.613281 C 129.792969 258.585938 126.089844 256.613281 112.691406 250.53125 C 90.363281 240.394531 82.769531 238.398438 66.683594 238.449219 C 57.167969 238.480469 55.085938 238.695312 51.863281 239.980469 C 49.800781 240.800781 48.113281 241.230469 48.113281 240.933594 C 48.113281 238.789062 54.59375 219.136719 57.308594 213.042969 C 60.300781 206.335938 65.75 196.449219 68.492188 192.75 C 71.066406 189.28125 92.453125 187.019531 103.46875 189.050781 C 123.667969 192.773438 148.410156 202.585938 166.683594 214.121094 C 180.28125 222.699219 195.191406 235.316406 194.347656 237.519531 C 193.367188 240.070312 169.566406 255.5625 150.929688 265.773438 L 145.535156 268.730469 Z M 154.125 327.503906 C 153.882812 326.421875 153.417969 324.414062 153.09375 323.039062 C 151.078125 314.449219 148.828125 293.492188 148.828125 283.28125 L 148.824219 276.738281 L 156.441406 272.671875 C 185.386719 257.214844 214.691406 234.808594 234.3125 213.136719 C 247.847656 198.183594 253.949219 189.632812 260.796875 176.011719 L 267.023438 163.628906 L 270.933594 164.117188 C 275.777344 164.722656 279.6875 166.246094 290.222656 171.632812 C 301.28125 177.285156 306.082031 180.578125 309.277344 184.6875 L 311.945312 188.125 L 310.695312 194.6875 C 307.914062 209.328125 303.796875 218.441406 292.898438 234.109375 C 284.484375 246.203125 280.84375 250.507812 268.226562 263.261719 C 248.554688 283.148438 218.828125 304.917969 198.824219 314.082031 C 187.09375 319.460938 158.957031 329.433594 155.445312 329.460938 C 154.964844 329.460938 154.367188 328.582031 154.125 327.5 Z M 173.484375 368.214844 C 170.742188 363.992188 167.121094 358.128906 165.433594 355.183594 C 162.378906 349.835938 157.765625 338.863281 158.335938 338.292969 C 158.5 338.128906 161.8125 337.078125 165.695312 335.957031 C 174.167969 333.511719 198.386719 324.066406 206.179688 320.164062 C 219.945312 313.273438 238.964844 300.496094 253.757812 288.199219 C 264.222656 279.5 284.320312 259.765625 290.933594 251.699219 C 302.652344 237.40625 314.503906 216.558594 317.652344 204.703125 L 319.308594 198.460938 L 321.160156 201.640625 C 324.84375 207.980469 335.054688 236.742188 337.417969 247.445312 C 338.277344 251.328125 338.21875 251.773438 335.902344 258.515625 C 334.574219 262.378906 331.035156 270.523438 328.042969 276.613281 C 320.128906 292.699219 313.089844 302.132812 295.613281 320.066406 C 285.539062 330.402344 284.027344 331.640625 270.257812 340.863281 C 244.453125 358.144531 230.839844 364.722656 208.136719 370.890625 C 199.222656 373.3125 185.226562 375.902344 181.078125 375.890625 C 178.546875 375.886719 178.316406 375.652344 173.480469 368.214844 Z M 218.828125 403.257812 C 212.589844 401.019531 206.359375 398.226562 202.890625 396.121094 C 196.929688 392.496094 187.847656 385.148438 188.578125 384.53125 C 188.914062 384.246094 193.203125 383.261719 198.117188 382.34375 C 221.046875 378.058594 246.515625 367.132812 270.261719 351.394531 C 301.570312 330.640625 324.53125 305.429688 337.699219 277.328125 L 339.542969 273.402344 L 339.253906 283.402344 C 338.84375 297.496094 335.835938 312.1875 330.402344 326.617188 L 327.847656 333.402344 L 317.445312 343.773438 C 293.34375 367.800781 265.910156 387.867188 242.648438 398.472656 C 232.8125 402.957031 223.304688 404.871094 218.828125 403.261719 Z M 230.96875 419.089844 C 230.96875 418.878906 231.746094 417.179688 232.691406 415.3125 C 234.382812 411.96875 234.554688 411.859375 243.007812 408.5 C 252.382812 404.773438 264.574219 398.070312 276.390625 390.140625 C 280.546875 387.351562 316.617188 352.734375 316.824219 352.941406 C 317.074219 353.195312 310.804688 364.746094 302.28125 375.179688 C 294.890625 384.222656 285.175781 392.261719 284.253906 393.300781 C 279.734375 398.398438 249.832031 413.765625 237.539062 417.613281 C 231.125 419.621094 230.96875 419.65625 230.96875 419.089844 Z M 175.09375 424.421875 C 170.488281 423.691406 165.671875 422.550781 164.386719 421.886719 C 158.378906 418.78125 144.648438 406.34375 132.097656 392.640625 C 120.042969 379.476562 111.234375 365.253906 102.777344 345.308594 C 98.664062 335.601562 95.261719 323.574219 90.921875 303.394531 C 88.699219 293.050781 88.609375 291.988281 88.339844 272.679688 C 88.164062 260.335938 88.328125 252.28125 88.757812 251.632812 C 89.363281 250.730469 90.113281 250.800781 94.320312 252.15625 C 105.203125 255.671875 120.328125 263.257812 132.058594 271.085938 L 139.898438 276.316406 L 140.34375 290.925781 C 140.84375 307.195312 141.546875 313.007812 144.539062 325.539062 C 146.925781 335.527344 148.699219 340.007812 156.425781 355.539062 C 163.515625 369.785156 166.980469 375.144531 174.726562 383.828125 C 188.019531 398.730469 197.667969 405.585938 211.730469 410.132812 C 217.007812 411.839844 221.566406 413.449219 221.859375 413.707031 C 222.152344 413.964844 220.386719 416.320312 217.929688 418.933594 L 213.46875 423.691406 L 206.734375 424.792969 C 197.964844 426.226562 185.558594 426.082031 175.09375 424.421875 Z M 132.398438 412.261719 C 118.175781 404.683594 112.46875 401.167969 103.460938 394.417969 C 88.757812 383.398438 79.808594 373.730469 68.054688 356.167969 C 60.898438 345.472656 58.503906 340.617188 52.761719 325.136719 C 48.207031 312.851562 48.136719 312.03125 49.921875 292.0625 C 51.378906 275.773438 51.835938 273.339844 56.132812 258.835938 L 59.8125 246.417969 L 67.734375 246.894531 C 76.359375 247.410156 79.988281 248.140625 79.738281 249.316406 C 79.652344 249.730469 79.554688 257.570312 79.519531 266.734375 C 79.386719 303.894531 85.214844 330.03125 100.84375 362.324219 C 109.6875 380.601562 120.214844 395.367188 133.804688 408.558594 C 137.941406 412.574219 140.847656 415.867188 140.257812 415.871094 C 139.667969 415.875 136.132812 414.25 132.398438 412.261719 Z M 44.15625 262.511719 C 44.503906 256.429688 44.753906 249.800781 46.804688 249.015625 C 47.699219 248.671875 55.550781 244.3125 53.789062 250.207031 C 52.441406 254.714844 49.804688 258.992188 49.191406 263.050781 L 43.789062 298.738281 L 44.15625 262.515625 Z M 44.15625 262.511719 "/>
</g>
</svg>
